<svg width="24" height="29" viewBox="0 0 24 29" fill="none" xmlns="http://www.w3.org/2000/svg">
<path d="M10.5 28.5V24H0V21H24V24H13.5V28.5H10.5ZM7.5 12.75C7.925 12.75 8.28125 12.6063 8.56875 12.3188C8.85625 12.0312 9 11.675 9 11.25C9 10.825 8.85625 10.4688 8.56875 10.1812C8.28125 9.89375 7.925 9.75 7.5 9.75C7.075 9.75 6.71875 9.89375 6.43125 10.1812C6.14375 10.4688 6 10.825 6 11.25C6 11.675 6.14375 12.0312 6.43125 12.3188C6.71875 12.6063 7.075 12.75 7.5 12.75ZM16.5 12.75C16.925 12.75 17.2812 12.6063 17.5688 12.3188C17.8563 12.0312 18 11.675 18 11.25C18 10.825 17.8563 10.4688 17.5688 10.1812C17.2812 9.89375 16.925 9.75 16.5 9.75C16.075 9.75 15.7188 9.89375 15.4312 10.1812C15.1437 10.4688 15 10.825 15 11.25C15 11.675 15.1437 12.0312 15.4312 12.3188C15.7188 12.6063 16.075 12.75 16.5 12.75ZM1.5 8.4L3.975 1.2C4.1 0.85 4.30625 0.5625 4.59375 0.3375C4.88125 0.1125 5.2 0 5.55 0H18.45C18.8 0 19.1187 0.1125 19.4062 0.3375C19.6938 0.5625 19.9 0.85 20.025 1.2L22.5 8.4V18.3C22.5 18.65 22.3875 18.9375 22.1625 19.1625C21.9375 19.3875 21.65 19.5 21.3 19.5H20.7C20.35 19.5 20.0625 19.3875 19.8375 19.1625C19.6125 18.9375 19.5 18.65 19.5 18.3V16.5H4.5V18.3C4.5 18.65 4.3875 18.9375 4.1625 19.1625C3.9375 19.3875 3.65 19.5 3.3 19.5H2.7C2.35 19.5 2.0625 19.3875 1.8375 19.1625C1.6125 18.9375 1.5 18.65 1.5 18.3V8.4ZM5.475 6H18.525L17.475 3H6.525L5.475 6ZM4.5 9V13.5V9ZM4.5 13.5H19.5V9H4.5V13.5Z" fill="#0088FF"/>
</svg>
